<svg width="141" height="93" viewBox="0 0 141 93" fill="none" xmlns="http://www.w3.org/2000/svg">
<g clip-path="url(#clip0_1605_53)">
<path d="M66.94 0.0200195C50.52 0.0200195 37.21 13.33 37.21 29.74C37.21 46.15 50.52 59.47 66.94 59.47C83.36 59.47 96.67 46.16 96.67 29.74C96.67 13.32 83.35 0.0200195 66.94 0.0200195ZM72.15 41.95C72.15 44.74 69.74 46.93 67.02 46.93C64.3 46.93 62.11 44.67 62.11 41.89V17.54C62.11 14.75 64.31 12.26 67.02 12.26C69.73 12.26 72.15 14.75 72.15 17.54V41.96V41.95Z" fill="white"/>
<path d="M18 59.47V40.28H34.37V24H18V16.22H38.07L36.98 0H0V59.47H18Z" fill="white"/>
<path d="M140.81 0H121.51L114.29 12.73L107.07 0H87.77L104.61 29.79L87.77 59.48H107.17L114.29 46.92L121.41 59.48H140.81L123.97 29.79L140.81 0Z" fill="white"/>
<path d="M0 85.02V74.34H4.86V84.94C4.86 86.41 5.95 87.51 7.43 87.51C8.91 87.51 10 86.42 10 84.94V74.34H14.86V85.02C14.86 89.11 11.66 92.19 7.44 92.19C3.22 92.19 0 89.11 0 85.02ZM17.23 74.34H25.62C29.31 74.34 32.1 77.01 32.1 80.57C32.1 84.13 29.3 86.8 25.62 86.8H22.09V91.88H17.23V74.34ZM22.09 78.92V82.22H25.52C26.44 82.22 27.12 81.51 27.12 80.57C27.12 79.63 26.43 78.92 25.52 78.92H22.09ZM33.55 74.34H45.04V78.92H38.41V80.98H44.1V85.56H38.41V91.89H33.55V74.35V74.34ZM46.79 74.34H54.92C58.61 74.34 61.4 76.98 61.4 80.52C61.4 82.83 60.15 84.71 58.25 85.71L61.94 91.89H55.92L53 86.45H51.65V91.89H46.79V74.35V74.34ZM51.64 78.92V82.22H54.82C55.74 82.22 56.42 81.51 56.42 80.57C56.42 79.63 55.73 78.92 54.82 78.92H51.64ZM62.42 83.11C62.42 77.95 66.44 74.04 71.75 74.04C77.06 74.04 81.08 77.95 81.08 83.11C81.08 88.27 77.06 92.18 71.75 92.18C66.44 92.18 62.42 88.27 62.42 83.11ZM76.09 83.11C76.09 80.59 74.21 78.71 71.74 78.71C69.27 78.71 67.39 80.59 67.39 83.11C67.39 85.63 69.27 87.51 71.74 87.51C74.21 87.51 76.09 85.63 76.09 83.11ZM82.9 74.34H87.76L93.56 83.31V74.34H98.42V91.88H93.56L87.76 82.91V91.88H82.9V74.34ZM104.38 78.92H100.16V74.34H113.45V78.92H109.23V91.88H104.37V78.92H104.38ZM120.01 91.85V89.83L124.37 83.77C125.87 81.69 126.61 79.91 126.61 78.43C126.61 76.95 126.04 76.24 124.91 76.24C123.78 76.24 123.07 77.14 122.94 78.93L120.17 78.83C120.27 77.1 120.71 75.83 121.49 75.01C122.27 74.2 123.44 73.79 124.98 73.79C126.52 73.79 127.64 74.19 128.42 74.99C129.2 75.79 129.59 76.95 129.59 78.48C129.59 79.81 129.26 81.08 128.59 82.3C128.32 82.8 128.1 83.19 127.9 83.48C127.71 83.77 127.16 84.54 126.24 85.79L123.67 89.38H129.58V91.85H119.98H120.01ZM136.67 91.85V88.68H130.46V86.86L135.3 74.04H138.39L133.78 86.26H136.67V81.92H139.36V86.26H140.78V88.68H139.36V91.85H136.67ZM118.74 74.04H117.13V78.92H118.74V74.04Z" fill="white"/>
</g>
<defs>
<clipPath id="clip0_1605_53">
<rect width="140.81" height="92.19" fill="white"/>
</clipPath>
</defs>
</svg>
